<?xml version="1.0" encoding="utf-8"?>
<!-- Generator: Adobe Illustrator 23.0.3, SVG Export Plug-In . SVG Version: 6.00 Build 0)  -->
<svg version="1.1" id="图层_1" xmlns="http://www.w3.org/2000/svg" xmlns:xlink="http://www.w3.org/1999/xlink" x="0px" y="0px"
	 viewBox="0 0 30 30" style="enable-background:new 0 0 30 30;" xml:space="preserve">
<path d="M26.84,25.73L17.36,3.58c-0.21-0.49-0.69-0.81-1.23-0.81h-1.71c-0.54,0-1.03,0.33-1.24,0.83L4.1,25.74
	c-0.36,0.88,0.29,1.84,1.24,1.84h0c0.54,0,1.03-0.33,1.24-0.83l2.65-6.41c0.21-0.5,0.69-0.83,1.24-0.83h9.79
	c0.54,0,1.02,0.32,1.23,0.82l2.72,6.44c0.21,0.49,0.69,0.82,1.23,0.82h0.18C26.57,27.59,27.22,26.61,26.84,25.73z M20.26,17.28h-9.8
	c-0.02,0-0.03-0.02-0.03-0.04c2.35-5.94,4.08-10.22,4.76-12.21c0-0.01,0.01-0.02,0.03-0.02c0.01,0,0.02,0.01,0.03,0.02
	c0.59,1.77,2.13,5.27,5.04,12.21C20.29,17.26,20.28,17.28,20.26,17.28z"/>
</svg>
